<?xml version="1.0" encoding="UTF-8" standalone="no"?>
<svg
   width="1659pt"
   height="2300pt"
   viewBox="0 0 1659 2300"
   version="1.1"
   id="svg14"
   xmlns="http://www.w3.org/2000/svg"
   xmlns:svg="http://www.w3.org/2000/svg"
   xmlns:rdf="http://www.w3.org/1999/02/22-rdf-syntax-ns#"
   xmlns:cc="http://creativecommons.org/ns#"
   xmlns:dc="http://purl.org/dc/elements/1.1/">
  <metadata
     id="metadata20">
    <rdf:RDF>
      <cc:Work
         rdf:about="">
        <dc:format>image/svg+xml</dc:format>
        <dc:type
           rdf:resource="http://purl.org/dc/dcmitype/StillImage" />
      </cc:Work>
    </rdf:RDF>
  </metadata>
  <defs
     id="defs18" />
  <g
     id="g59544">
    <path
       style="fill:#000000;stroke:#000000;stroke-width:0.75px;stroke-linecap:butt;stroke-linejoin:miter;stroke-opacity:1"
       d="m 864.34695,2249.9936 276.65695,-42.9573 142.4322,-702.6451 222.8752,-348.1619 L 1585.63,1008.66 1659,881.34 1497.02,682.96 1484.83,625.98 1262.45,392.53 1221.63,344.65 937.92998,154.05 883.23,153.14 438.94,304.84 356.65,334.47 252.25553,905.571 687.28375,1608.573 Z"
       id="path1209" />
    <path
       style="fill:#ffffff;stroke:none;stroke-width:0.75px;stroke-linecap:butt;stroke-linejoin:miter;stroke-opacity:1"
       d="m 737.89009,1622.4486 490.90941,108.6571 -130.3452,477.3138 -261.20117,16.1369 -138.20347,-483.4297 z"
       id="path1477" />
    <path
       fill="#ff8500"
       opacity="1"
       d="m 617.63,1.38 c 45.5,-1.92 87.31,19.7 128.26,36.72 43.71,22.39 88,45.95 123.37,80.65 7.38,9.06 20.03,21.69 13.97,34.39 -55.63,93.55 -112.62,186.27 -168.5,279.69 -1.74,2.43 -4.74,-0.04 -6.79,-0.72 C 618.42,389.36 528.33,347.8 438.94,304.84 492.32,205.73 548.16,107.93 601.98,9.04 605,3.63 612.06,2.36 617.63,1.38 Z"
       id="path2"
       style="fill:#ffed00;fill-opacity:1" />
    <path
       fill="#fffc01"
       opacity="1"
       d="m 945.73,149.37 c 41.6,-1.53 78.21,22.83 114.26,40.64 55.58,33 112.03,68 154.23,117.77 6.56,10.21 17.29,25.12 7.41,36.87 -93.29,135.67 -186.49,271.42 -279.91,407.02 -2.44,2.08 -3.15,6.69 -6.62,7.35 13.7,-50.61 26.51,-102.68 22.5,-155.55 -2.97,-21.82 -10.98,-45.15 -29.55,-58.54 C 872.69,513.5 813.73,486.43 759.09,454.91 818.37,354.66 878.8,254.59 937.93,154.05 c 1.78,-2.57 4.73,-4.22 7.8,-4.68 z"
       id="path4"
       style="fill:#008026;fill-opacity:1" />
    <path
       fill="#fe0000"
       opacity="1"
       d="m 356.65,334.47 c 21.98,-6.2 43.08,5.81 62.73,14.16 162.34,77.99 324.83,155.73 487.15,233.69 11.19,9.38 9.95,25.88 7.82,38.98 C 897.92,701.23 825.47,762 746.5,775.46 668.42,787.62 590.04,762.94 521.93,726 c -26.49,49.28 -51.91,99.31 -77.81,148.95 126.27,52.39 239.53,136.2 324.11,243.83 105.63,133.68 167.08,297.02 201.88,462.41 -5.61,63.1 -9.45,126.44 -14.03,189.57 -63.27,-5.98 -122.28,-30.85 -180,-55.74 42.17,43.5 85.86,86.08 128.43,128.88 7.49,126.31 11.55,252.9 18.65,379.27 -1.62,25.27 -4.07,50.48 -5.22,75.79 -166.94,0.03 -333.88,0.15 -500.82,-0.06 28.71,-206.57 61.87,-412.74 91.51,-619.25 1.19,-11.69 7.45,-24.98 -2.58,-34.68 C 349.15,1419.55 191.86,1194.42 34.92,969.08 20.3,947.74 3.38,925.92 0,899.43 V 882.69 C 4.95,851.31 24.31,825.07 40.92,798.91 131.24,659.5 221.4,520 311.37,380.37 c 12.34,-17.51 22.96,-39.55 45.28,-45.9 z"
       id="path6"
       style="fill:#ff8c00;fill-opacity:1" />
    <path
       fill="#307500"
       opacity="1"
       d="m 1266.95,391.03 c 9.24,-1.11 17.46,3.95 25.58,7.44 40.03,19.4 72.81,50.01 105.67,79.33 32.43,31.3 65.45,63.53 88.09,102.92 6.72,12.93 15.94,31.83 3.04,43.76 -114.52,126.75 -229.01,253.51 -343.1,380.74 -10.95,7.93 -18.14,31.08 -34.64,22.25 -55.33,-28.81 -100.27,-73.45 -144.82,-116.25 -10.87,-14.69 -25.45,-26.48 -34.19,-42.79 -4.14,-7.1 -9.36,-17.03 -2.36,-24.21 109.7,-150.26 219.82,-300.19 329.66,-450.32 1.64,-2.15 4.53,-2.62 7.07,-2.87 z"
       id="path8"
       style="fill:#004dff;fill-opacity:1" />
    <path
       fill="#003cff"
       opacity="1"
       d="m 1497.02,682.96 c 17.89,-5.74 33.72,12.89 47.11,22.91 46.28,47 92.44,98.66 114.87,161.81 v 13.66 c -0.96,2.48 -2.3,4.86 -4.35,6.59 -119.47,105.79 -237.19,213.32 -356.38,319.41 -7.44,7.46 -18.8,1.89 -26.62,-2.04 -31.73,-19.96 -58.4,-46.94 -82.9,-75.05 -14.56,-18.53 -31.86,-36.77 -36.64,-60.63 -1.26,-12.31 12.01,-18.5 18,-27.49 109.84,-118.81 216.77,-240.55 326.91,-359.17 z"
       id="path10"
       style="fill:#750787;fill-opacity:1" />
    <path
       fill="#7d01b1"
       opacity="1"
       d="m 1585.63,1008.66 c -0.06,74.54 3.24,152.97 -26.98,223 -83.63,173.06 -170.51,344.68 -254.95,517.36 -1.69,183.19 -0.13,366.56 -0.77,549.82 -128.31,0.35 -256.66,0.1 -384.99,0.12 1.15,-25.31 3.6,-50.52 5.22,-75.79 19.96,-117.67 39.58,-235.43 60.02,-353.05 1.62,-7.29 0.38,-16.74 8.68,-20.4 43.52,-30.45 87.67,-61.47 129.79,-92.96 -54.47,10.17 -109.98,19.46 -165.57,14 4.58,-63.13 8.42,-126.47 14.03,-189.57 26.32,-131.74 49.84,-264.14 74.94,-396.19 83.22,40.33 164.77,85.1 247.81,125.93 98.29,-99.87 194.7,-202 292.77,-302.27 z"
       id="path12"
       style="fill:#96631d;fill-opacity:1" />
    <path
       fill="#7d01b1"
       opacity="1"
       d="m 1303.7,1749.02 c -1.69,183.19 -0.13,366.56 -0.77,549.82 -128.31,0.35 -256.66,0.1 -384.99,0.12 1.15,-25.31 3.6,-50.52 5.22,-75.79 19.96,-117.67 39.58,-235.43 60.02,-353.05 1.62,-7.29 0.38,-16.74 8.68,-20.4 43.52,-30.45 87.67,-61.47 129.79,-92.96 -54.47,10.17 -109.98,19.46 -165.57,14 4.58,-63.13 8.42,-126.47 14.03,-189.57 z"
       id="path846"
       style="fill:#000000" />
    <path
       fill="#fe0000"
       opacity="1"
       d="m 970.11,1581.19 c -5.61,63.1 -9.45,126.44 -14.03,189.57 -63.27,-5.98 -122.28,-30.85 -180,-55.74 42.17,43.5 85.86,86.08 128.43,128.88 7.49,126.31 11.55,252.9 18.65,379.27 -1.62,25.27 -4.07,50.48 -5.22,75.79 -166.94,0.03 -333.88,0.15 -500.82,-0.06 28.71,-206.57 61.87,-412.74 91.51,-619.25 1.19,-11.69 7.45,-24.98 -2.58,-34.68 z"
       id="path14404"
       style="fill:#ff0000;fill-opacity:1" />
  </g>
</svg>
